<?xml version="1.0" standalone="no"?>
<!DOCTYPE svg PUBLIC "-//W3C//DTD SVG 20010904//EN"
 "http://www.w3.org/TR/2001/REC-SVG-20010904/DTD/svg10.dtd">
<svg version="1.0" xmlns="http://www.w3.org/2000/svg"
 width="1024.000000pt" height="1024.000000pt" viewBox="0 0 1024.000000 1024.000000"
 preserveAspectRatio="xMidYMid meet">
<metadata>
Created by potrace 1.11, written by Peter Selinger 2001-2013
</metadata>
<g transform="translate(0.000000,1024.000000) scale(0.100000,-0.100000)"
fill="#000000" stroke="none">
<path d="M1641 10224 c-169 -45 -301 -180 -346 -351 -21 -82 -21 -465 0 -548
49 -187 205 -328 395 -358 l70 -11 0 -65 c0 -209 39 -582 86 -826 214 -1103
809 -2047 1640 -2598 201 -133 476 -274 637 -326 20 -7 37 -16 37 -21 0 -5
-17 -14 -37 -21 -76 -24 -291 -122 -398 -181 -875 -478 -1548 -1395 -1820
-2478 -86 -344 -145 -786 -145 -1091 l0 -65 -70 -11 c-190 -30 -346 -171 -395
-358 -21 -84 -21 -466 0 -550 45 -172 179 -305 352 -350 50 -13 477 -15 3473
-15 2996 0 3423 2 3473 15 173 45 307 178 352 350 21 84 21 466 0 550 -49 187
-205 328 -395 358 l-70 11 0 65 c0 209 -39 582 -86 826 -214 1103 -809 2047
-1640 2598 -201 133 -476 274 -636 326 -21 7 -38 16 -38 21 0 5 17 14 38 21
75 24 290 122 397 181 875 478 1548 1395 1820 2478 86 344 145 786 145 1091
l0 65 70 11 c190 30 346 171 395 358 21 83 21 466 0 548 -45 173 -178 307
-350 352 -53 13 -439 15 -3480 14 -2953 0 -3427 -2 -3474 -15z m5555 -1416
c-15 -359 -72 -683 -177 -1005 l-40 -123 -1859 0 -1859 0 -40 123 c-104 320
-162 649 -177 1005 l-7 152 2083 0 2083 0 -7 -152z m-1781 -4678 c508 -107
962 -460 1293 -1005 95 -157 262 -510 262 -555 0 -7 -615 -10 -1850 -10 -1235
0 -1850 3 -1850 10 0 22 77 203 140 330 359 719 903 1164 1530 1250 106 15
361 4 475 -20z"/>
</g>
</svg>
