<?xml version="1.0" standalone="no"?>
<!DOCTYPE svg PUBLIC "-//W3C//DTD SVG 20010904//EN"
 "http://www.w3.org/TR/2001/REC-SVG-20010904/DTD/svg10.dtd">
<svg version="1.0" xmlns="http://www.w3.org/2000/svg"
 width="1024.000000pt" height="1024.000000pt" viewBox="0 0 1024.000000 1024.000000"
 preserveAspectRatio="xMidYMid meet">
<metadata>
Created by potrace 1.11, written by Peter Selinger 2001-2013
</metadata>
<g transform="translate(0.000000,1024.000000) scale(0.100000,-0.100000)"
fill="#000000" stroke="none">
<path d="M0 5120 l0 -5120 5120 0 5120 0 0 5120 0 5120 -5120 0 -5120 0 0
-5120z m7383 3254 c60 -20 131 -84 165 -148 27 -50 27 -54 27 -241 0 -177 -2
-193 -22 -231 -50 -94 -124 -150 -223 -170 l-55 -11 -7 -144 c-23 -520 -184
-1025 -457 -1435 -110 -165 -189 -260 -332 -399 -194 -188 -387 -321 -599
-414 -52 -23 -108 -47 -123 -54 l-29 -13 74 -28 c171 -65 384 -193 537 -321
559 -469 891 -1173 930 -1974 l6 -134 55 -11 c109 -22 192 -92 230 -194 27
-71 29 -342 4 -416 -22 -64 -100 -147 -166 -177 l-53 -24 -2230 0 -2230 0 -51
27 c-65 34 -138 115 -158 175 -19 55 -23 334 -6 395 15 54 69 128 117 162 24
16 73 37 110 47 l68 17 7 158 c31 766 377 1493 924 1945 159 132 373 260 542
325 67 26 72 29 50 38 -286 117 -450 217 -659 402 -503 445 -824 1158 -856
1902 l-6 152 -28 0 c-88 0 -210 85 -252 178 -20 43 -22 63 -22 232 0 182 0
186 27 236 33 62 104 127 161 148 37 13 329 15 2263 15 1996 1 2225 -1 2267
-15z"/>
<path d="M3787 7573 c-8 -14 12 -278 28 -380 21 -128 39 -205 77 -330 l31
-103 1196 0 1196 0 37 128 c64 216 98 425 98 598 l0 94 -1329 0 c-732 0 -1332
-3 -1334 -7z"/>
<path d="M4953 4485 c-148 -27 -280 -82 -423 -178 -99 -66 -278 -248 -363
-367 -65 -92 -220 -387 -231 -442 l-6 -28 1190 0 c654 0 1190 1 1190 3 0 14
-63 154 -116 257 -85 165 -177 293 -299 415 -108 109 -191 172 -308 235 -192
104 -427 143 -634 105z"/>
</g>
</svg>
